<?xml version="1.0" encoding="UTF-8" standalone="no"?>
<svg
   width="640"
   height="480"
   version="1.1"
   id="svg125"
   sodipodi:docname="Flag of Albania.svg"
   inkscape:version="1.2 (dc2aedaf03, 2022-05-15)"
   xmlns:inkscape="http://www.inkscape.org/namespaces/inkscape"
   xmlns:sodipodi="http://sodipodi.sourceforge.net/DTD/sodipodi-0.dtd"
   xmlns="http://www.w3.org/2000/svg"
   xmlns:svg="http://www.w3.org/2000/svg">
  <path
     d="M 640,0 H 0 v 480 h 640 z"
     fill="#ff0000"
     id="path121"
     style="stroke-width:0.669188" />
  <path
     d="m 338.17829,362.70458 c -4.21715,-3.65623 -9.32915,-11.06057 -9.25715,-18.19749 0.37715,-5.32183 4.0272,-8.41371 6.38537,-1.91726 3.33395,7.17052 10.48458,19.02789 20.33829,12.072 4.30491,-3.15977 4.23771,-7.81165 -1.66491,-7.27817 -7.28915,-0.4992 -11.76686,-4.50994 -15.0288,-14.83611 -0.59315,-5.67909 1.76914,-5.53714 5.06537,-1.88366 4.23771,4.86172 12.67063,12.20983 21.9744,8.27177 5.17028,-2.16685 6.62948,-6.63771 -1.18149,-7.73828 -7.39474,0.10765 -13.43108,-4.68617 -19.44,-11.99863 -3.29486,-4.04572 1.5648,-8.12983 4.48252,-4.68617 2.60228,2.23543 6.24685,6.35383 9.37028,6.9216 3.61166,0.70903 8.08869,0.35657 13.04914,-2.26972 5.3472,-4.47565 3.61098,-7.70468 -2.88,-8.448 -5.03177,0.2496 -7.77257,2.16206 -14.26285,-2.16685 -11.66675,-7.88572 -20.94172,-18.42172 -22.39063,-31.09509 -0.95177,-8.33554 3.53006,-10.85966 7.25623,-9.90034 10.13485,2.60708 16.76503,21.54651 23.77714,31.95085 2.29577,2.99863 4.40503,3.04732 5.89714,2.12298 2.8128,-2.41166 5.0592,-4.39406 7.872,-7.09029 0,0 20.62972,3.70697 31.86377,7.36869 l -12.5088,4.44548 c -4.73622,-2.61531 -10.45234,0.20434 -10.45234,4.74172 -4.48183,3.09942 -4.12114,6.73302 -2.18743,10.23977 0.58972,-2.44183 1.09303,-5.61326 4.63337,-6.03497 5.05303,2.09005 10.94058,-0.8928 10.94058,-4.83909 l 14.75588,-5.79977 14.90743,8.43977 c 0,5.70514 5.40549,7.51269 11.02971,5.97257 2.65029,1.64572 4.35429,4.50103 5.25189,7.55452 1.65943,-4.40366 1.31314,-7.51269 -1.28571,-9.67338 1.49142,-5.69348 -6.48686,-11.16822 -12.66309,-7.52228 l -10.72457,-6.15772 18.35657,-0.51428 c 2.13051,3.77143 9.83109,3.9792 12.07749,0 1.92,-0.52594 3.5424,-0.86057 7.28571,1.92206 -1.17943,-4.5024 -3.4752,-6.4272 -6.91886,-6.4272 -2.61668,-4.63612 -12.0864,-4.61486 -13.45371,0.6048 l -19.1184,0.53142 11.34377,-8.07634 c 4.23429,2.50012 10.176,-0.27908 11.36571,-4.82057 1.68823,-2.00709 3.77006,-2.94994 7.86789,-1.58811 -2.112,-3.74058 -5.088,-4.85692 -10.46263,-2.31772 -4.90286,-3.7152 -11.36503,0.79063 -10.38446,4.5312 l -15.09257,10.26857 c -10.95497,-3.2688 -30.79543,-8.35885 -30.79543,-8.35885 2.36229,-2.48503 4.75886,-4.79383 7.11703,-7.31315 0.85166,-1.47565 -0.44983,-3.19405 -2.25805,-3.552 -17.7024,-3.65348 -27.83795,-10.78971 -33.9792,-28.92754 -2.56869,-7.59634 2.98491,-9.86606 4.89325,-5.21966 2.64,6.46217 5.55292,13.52503 13.50172,18.99429 2.74148,1.91726 10.90217,0.35177 6.07543,-4.22674 -4.99886,-4.1184 -7.15063,-5.88892 -9.61372,-15.90172 0,-5.07291 5.17029,-7.34743 8.0544,-2.48503 3.08572,9.97372 3.40114,14.26835 8.98766,20.69486 4.23291,4.86309 9.75291,8.13051 12.49371,8.05714 4.93166,-0.0686 9.89623,-5.39657 3.30035,-9.26468 -9.68572,-3.8688 -13.22538,-9.15635 -14.65098,-14.19977 -1.55931,-8.79978 0.144,-13.06012 5.4528,-8.7312 7.52915,8.55497 21.90172,24.49165 29.43086,31.91177 8.43772,6.46217 18.11863,6.672 25.824,0.10765 4.41052,-5.07702 2.84572,-10.5408 -4.06011,-9.37165 -15.58355,1.3152 -27.384,-6.42309 -40.33166,-27.33395 -2.53509,-4.72045 -3.22971,-11.50011 2.36229,-6.45668 6.45257,8.7312 15.86057,16.15131 24.61028,19.34537 8.78126,3.15566 16.032,1.41257 18.84412,-1.34949 3.38948,-3.3888 2.49805,-11.92594 -3.36686,-9.86742 -4.82606,1.70331 -11.62766,2.12845 -18.70629,-0.60549 -7.08411,-2.76891 -14.44114,-8.7312 -22.25143,-18.84686 -2.67428,-5.71337 -1.80342,-10.54148 3.61029,-7.59771 12.80914,10.86514 29.33143,19.66491 37.76366,14.37737 6.21394,-3.86949 6.31885,-13.80891 -1.55932,-13.16846 -15.86537,2.16206 -21.86811,-1.34948 -37.10743,-14.80114 -3.46834,-2.59269 -3.22834,-9.16183 2.29029,-4.97006 12.80914,8.27177 30.30171,11.49943 37.17531,7.1712 6.18035,-3.86948 5.27589,-15.69257 -5.13668,-11.50491 -8.33212,5.07703 -17.53029,4.93508 -35.96023,-8.23269 -4.64914,-3.8688 -1.18149,-8.91223 2.63589,-6.74537 14.82308,8.448 36.41417,12.0672 42.03428,-5.11131 2.18606,-6.56503 -1.76914,-10.39955 -7.56686,-5.856 -12.73782,11.784 -27.17828,5.99725 -35.26148,0.0686 -2.31497,-1.36457 -6.56229,-8.27109 0.89828,-6.98949 19.3008,4.40229 38.3904,0.56777 41.86286,-13.0992 2.01394,-4.43657 -1.94743,-12.28251 -8.99177,-5.71337 -9.26537,9.15703 -19.09029,9.47452 -31.4448,9.40594 -6.28526,-1.3152 -6.35177,-8.2368 -1.07657,-9.264 9.75291,0.20983 19.36731,-4.05051 27.07337,-8.37942 7.53326,-4.32892 13.78011,-10.39955 15.76046,-18.81258 1.21371,-7.523648 -6.04115,-15.510848 -10.41326,-7.523648 -6.45737,11.676338 -20.75863,22.682048 -36.65829,24.668568 -0.82765,-1.38514 -2.91291,-4.93577 -5.4816,-3.93806 -4.66834,1.81029 -10.23085,4.23223 -15.95794,6.95246 -12.3456,5.86217 -17.49051,8.68731 -16.008,18.816 1.54766,10.56891 -6.60068,17.24777 -13.33028,15.4032 -5.86972,-1.57989 -9.10766,-6.88183 -8.05578,-16.07794 0.84275,-7.32755 8.19909,-16.19109 16.48869,-20.83886 5.3664,-3.00343 13.4688,-4.6464 23.22171,-6.81326 5.93555,-1.16914 8.95886,-3.47794 9.30378,-5.8944 0,0 -4.05738,2.96914 -10.55178,2.52343 -3.07062,-0.21943 -5.12777,-1.57029 -5.90262,-2.94857 2.25805,-0.45943 6.35245,0.0734 10.03062,0.0734 4.89258,-0.0391 16.2528,-1.13486 19.26652,-8.02286 0.93737,-4.543535 -2.04823,-5.360221 -4.82606,-2.450049 -2.98491,3.145369 -4.2144,5.972569 -10.20343,7.028569 -3.64388,0.64114 -7.28914,1.38514 -11.97668,0.25028 2.64,-3.13577 6.8352,-6.34423 10.41325,-5.75314 1.17669,0.19611 2.7408,1.28229 3.9936,3.23383 0.76526,-4.970054 -0.59314,-10.580568 -13.88571,-8.237482 0.2112,-3.761143 -7.70606,-5.3952 -12.45943,-5.321829 -2.7072,0.06857 -8.2272,1.668343 -12.21668,3.5808 -6.31818,1.956343 -12.56503,3.375086 -19.92686,3.908572 4.272,3.653479 5.07086,3.868799 9.33668,6.955199 -6.45257,2.41165 -11.45142,7.38171 -13.70811,10.64914 0,0 7.53326,-0.21052 9.44229,0.64046 -7.88298,2.304 -11.42332,3.68845 -15.58835,7.9488 1.45852,0.2496 3.64389,0.67474 4.58195,1.032 0.97577,0.35245 0.72205,0.99291 -0.0672,1.59497 -1.69783,1.296 -8.71406,9.44503 -10.7616,11.39657 -2.04755,-1.95154 -9.06378,-10.10057 -10.7616,-11.39657 -0.78926,-0.60206 -1.04298,-1.24252 -0.0672,-1.59497 0.93737,-0.35658 3.12342,-0.7824 4.58194,-1.032 -4.16572,-4.26035 -7.70537,-5.6448 -15.58834,-7.9488 1.90902,-0.85098 9.44228,-0.64046 9.44228,-0.64046 -2.25806,-3.26743 -7.25623,-8.23749 -13.7088,-10.64914 4.26652,-3.0864 5.06537,-3.30172 9.33669,-6.955885 -7.36115,-0.5328 -13.608,-1.951543 -19.92686,-3.908571 -3.9888,-1.911772 -9.5088,-3.511543 -12.216,-3.580115 -4.75406,-0.07337 -12.67063,1.560686 -12.45943,5.321143 -13.29257,-2.3424 -14.65097,3.268114 -13.88571,8.238168 1.2528,-1.95154 2.81691,-3.03772 3.9936,-3.23314 3.57805,-0.59178 7.77257,2.61668 10.41325,5.75245 -4.68754,1.13486 -8.3328,0.39086 -11.97737,-0.2496 -5.98834,-1.056 -7.21783,-3.88388 -10.20343,-7.028564 -2.77782,-2.910857 -5.76274,-2.094171 -4.82537,2.450054 3.01372,6.88731 14.37257,7.98308 19.26652,8.02217 3.67817,0 7.77257,-0.53349 10.03063,-0.0734 -0.77486,1.37966 -2.832,2.72914 -5.90263,2.94857 -6.49509,0.44571 -10.55177,-2.52343 -10.55177,-2.52343 0.34491,2.41646 3.36685,4.72457 9.30377,5.8944 9.75291,2.16686 17.85531,3.81052 23.22171,6.81394 8.2896,4.64709 15.64594,13.51063 16.488,20.83818 1.05189,9.19542 -2.18606,14.49805 -8.05508,16.07794 -6.7296,1.84457 -14.87795,-4.83429 -13.33029,-15.4032 1.48251,-10.12869 -3.6624,-12.95383 -16.008,-18.816 -5.72709,-2.72023 -11.2896,-5.14286 -15.95794,-6.95314 -2.56869,-0.99703 -4.65395,2.55428 -5.4816,3.93874 -15.89966,-1.98652 -30.20092,-12.99223 -36.65829,-24.668568 -4.37211,-7.9872 -11.62766,0 -10.41326,7.523648 1.98035,8.41372 8.2272,14.48366 15.76046,18.81258 7.70606,4.32891 17.32046,8.58925 27.07337,8.37942 5.2752,1.0272 5.20869,7.9488 -1.07657,9.264 -12.3552,0.0686 -22.17943,-0.24891 -31.4448,-9.40594 -7.04503,-6.56914 -11.00571,1.2768 -8.99177,5.71337 3.47246,13.66629 22.56206,17.50149 41.86217,13.0992 7.46057,-1.28228 3.21394,5.6256 0.89829,6.99017 -8.08252,5.928 -22.52297,11.71475 -35.2608,-0.0686 -5.79703,-4.54423 -9.7536,-0.70971 -7.56686,5.85532 5.62011,17.17851 27.2112,13.55931 42.03429,5.11131 3.81737,-2.16686 7.28502,2.87657 2.63588,6.74537 -18.42994,13.16777 -27.62743,13.30972 -35.96023,8.23269 -10.41257,-4.18766 -11.31703,7.63543 -5.13668,11.50491 6.87291,4.32892 24.36548,1.10057 37.17463,-7.1712 5.52,-4.19177 5.75862,2.37737 2.29028,4.97006 -15.23863,13.45166 -21.24137,16.9632 -37.10674,14.80114 -7.87886,-0.64045 -7.77326,9.29829 -1.55932,13.16846 8.43223,5.28686 24.95315,-3.51223 37.76229,-14.37669 5.41509,-2.94445 6.28526,1.88366 3.61166,7.59703 -7.81029,10.11566 -15.168,16.07795 -22.25143,18.84686 -7.07863,2.73394 -13.88023,2.3088 -18.70629,0.60617 -5.86491,-2.0592 -6.75634,6.47794 -3.36754,9.86674 2.81349,2.76206 10.06354,4.50515 18.84549,1.34949 8.74834,-3.19406 18.15702,-10.61486 24.6096,-19.34537 5.59131,-5.04343 4.89737,1.73623 2.36228,6.45668 -12.94766,20.91086 -24.74743,28.64915 -40.33166,27.33395 -6.90651,-1.16915 -8.47062,4.29463 -4.0608,9.37165 7.70606,6.56435 17.38698,6.35452 25.824,-0.10765 7.52915,-7.42012 21.90172,-23.3568 29.43086,-31.91177 5.30949,-4.32892 7.0128,-0.0686 5.45349,8.7312 -1.42629,5.04342 -4.96457,10.33097 -14.65097,14.19977 -6.59658,3.86948 -1.632,9.19543 3.30034,9.264 2.7408,0.074 8.2608,-3.19337 12.49371,-8.05577 5.58652,-6.4272 5.90263,-10.72183 8.98766,-20.69555 2.88411,-4.8624 8.0544,-2.58788 8.0544,2.48435 -2.46309,10.01348 -4.61554,11.784 -9.61371,15.90171 -4.82743,4.5792 3.33394,6.144 6.07474,4.22743 7.94948,-5.46926 10.86171,-12.53212 13.50171,-18.99429 1.90903,-4.6464 7.46263,-2.37668 4.89395,5.21966 -6.14126,18.13714 -16.2768,25.27406 -33.9792,28.92823 -1.80823,0.35657 -3.10972,2.07566 -2.25875,3.55131 2.35886,2.51932 4.75543,4.82743 7.11772,7.31315 0,0 -19.84115,5.09005 -30.79612,8.35885 l -15.09257,-10.26857 c 0.98057,-3.74057 -5.48091,-8.2464 -10.38446,-4.53257 -5.37531,-2.53783 -8.35062,-1.42149 -10.46262,2.31909 4.09782,-1.36183 6.17965,-0.41898 7.86788,1.58742 1.18972,4.54218 7.13143,7.32138 11.36572,4.82058 l 11.34377,8.07771 -19.11772,-0.53211 c -1.368,-5.21898 -10.83771,-5.24092 -13.45508,-0.6048 -3.44229,0 -5.73943,1.9248 -6.91886,6.4272 3.744,-2.78263 5.36709,-2.448 7.2864,-1.92206 2.2464,3.9792 9.94697,3.77143 12.0768,0 l 18.35726,0.51428 -10.72457,6.15772 c -6.17623,-3.64594 -14.15452,1.8288 -12.66309,7.52228 -2.59886,2.16 -2.94583,5.26972 -1.28571,9.67338 0.89691,-3.05349 2.6016,-5.9088 5.25257,-7.5552 5.62285,1.5408 11.02903,-0.26606 11.02903,-5.97258 l 14.90742,-8.43908 14.75658,5.79977 c 0,3.94629 5.88685,6.92914 10.93988,4.83909 3.54034,0.42171 4.04366,3.59314 4.63337,6.03428 1.93372,-3.50606 2.2944,-7.13966 -2.18743,-10.23908 0,-4.53738 -5.71611,-7.35772 -10.45234,-4.74172 l -12.5088,-4.44548 c 11.23406,-3.66172 31.86446,-7.368 31.86446,-7.368 2.81211,2.69485 5.05851,4.67794 7.872,7.09028 1.49211,0.92366 3.60137,0.87497 5.89714,-2.12366 7.01212,-10.40434 13.6416,-29.34377 23.77714,-31.95085 3.72618,-0.96 8.208,1.5648 7.25623,9.90034 -1.4496,12.67337 -10.72457,23.21006 -22.38994,31.09509 -6.49097,4.32891 -9.23177,2.41645 -14.26354,2.16685 -6.49097,0.74332 -8.2272,3.97235 -2.88,8.448 4.96045,2.62629 9.43748,2.97875 13.04914,2.26972 3.12343,-0.56777 6.768,-4.68617 9.37029,-6.9216 2.91771,-3.44366 7.77737,0.64045 4.48182,4.68617 -6.00822,7.31246 -12.04457,12.10628 -19.44,11.99863 -7.81028,1.10057 -6.35108,5.57143 -1.1808,7.73828 9.30378,3.93806 17.736,-3.40937 21.9744,-8.27177 3.29555,-3.65348 5.65852,-3.79543 5.06538,1.88366 -3.26263,10.32617 -7.73966,14.33691 -15.0288,14.83611 -5.90263,-0.53348 -5.96983,4.1184 -1.66492,7.27817 9.85372,6.95589 17.00434,-4.90148 20.33829,-12.072 2.35817,-6.49577 6.00685,-3.40457 6.38537,1.91726 0.072,7.13692 -5.04,14.54126 -9.25714,18.19749 -4.21578,3.6576 18.17691,26.90468 18.17691,26.90468 0,0 22.39337,-23.24845 18.1776,-26.90537 z M 368.1872,99.431439 c -3.48549,0 -5.63863,1.220571 -5.63863,2.701711 0,1.50446 2.15314,2.73051 5.63863,2.73051 3.46491,0 5.66537,-1.33714 5.66537,-2.84365 0,-1.48115 -2.20114,-2.589256 -5.66537,-2.589256 z m -96.37303,0 c 3.48549,0 5.63863,1.220571 5.63863,2.701711 0,1.50446 -2.15314,2.73051 -5.63863,2.73051 -3.46491,0 -5.66537,-1.33714 -5.66537,-2.84365 0,-1.48115 2.20114,-2.589256 5.66537,-2.589256 z"
     fill-rule="evenodd"
     id="path123"
     style="stroke-width:0.685714" />
</svg>
