<svg xmlns="http://www.w3.org/2000/svg" xmlns:xlink="http://www.w3.org/1999/xlink" viewBox="0 0 640 480">
<g transform="translate(0.000000,480.000000) scale(0.100000,-0.100000)"
fill="#000000" stroke="none">
<path d="M3861 4445 l-32 -45 -104 0 c-99 0 -106 2 -190 40 -48 22 -89 40 -91
40 -2 0 -4 -106 -4 -235 l0 -235 -34 0 -34 0 -4 -64 c-3 -56 -9 -70 -41 -112
-78 -100 -28 -201 88 -180 l35 7 0 -421 0 -420 53 0 c90 1 157 43 157 100 0
19 4 20 38 14 59 -11 69 -20 76 -69 6 -38 11 -45 30 -45 30 0 137 29 152 41 7
5 200 10 497 12 456 2 486 3 505 20 12 11 25 31 30 47 9 25 6 32 -36 72 -58
55 -152 132 -155 127 -40 -58 -93 -109 -113 -109 -13 0 -24 3 -24 8 1 16 37
48 65 57 22 8 38 26 62 70 30 56 32 67 32 162 1 101 1 103 29 117 15 8 39 27
54 43 l28 29 -53 39 -52 40 58 5 c62 6 82 20 94 70 5 20 -3 32 -50 75 l-57 50
1 180 0 180 42 30 c23 17 42 39 42 49 0 11 -38 48 -101 97 l-101 78 -43 -45
c-44 -48 -67 -54 -31 -9 20 26 38 91 29 101 -3 2 -59 11 -124 19 -87 11 -120
12 -125 4 -7 -11 -79 -8 -166 8 l-33 5 0 -81 c0 -66 -3 -83 -16 -88 -9 -3 -53
12 -104 37 -48 24 -92 40 -97 37 -5 -3 -39 17 -76 44 -37 27 -69 49 -70 49 -2
0 -18 -20 -36 -45z m578 -31 c7 -6 -21 -34 -35 -34 -10 0 -14 -15 -14 -55 l0
-55 65 0 65 0 0 81 0 82 38 -7 c20 -3 47 -6 60 -6 28 0 29 -26 2 -35 -17 -5
-20 -15 -20 -61 l0 -54 47 0 c39 0 52 5 79 31 22 21 36 28 46 23 45 -28 107
-80 104 -89 -1 -5 -17 -14 -34 -20 l-32 -9 0 -199 0 -198 -35 -15 c-48 -20
-55 -18 -55 16 l0 30 -265 0 -265 0 0 -29 c0 -34 -15 -49 -58 -57 l-31 -6 -3
53 -3 54 -56 -52 c-31 -29 -62 -53 -70 -53 -8 0 0 -13 19 -30 17 -16 32 -32
32 -35 0 -3 -11 -10 -25 -15 l-25 -10 0 -327 c0 -197 -4 -343 -11 -366 -11
-42 -40 -65 -92 -74 -30 -5 -36 -2 -42 18 -11 37 -45 68 -82 75 -57 11 -36 23
45 26 l77 3 3 108 3 107 -136 0 -135 0 0 -161 0 -160 -35 -15 c-70 -29 -65
-62 -65 430 l0 445 55 -25 c49 -21 70 -24 180 -24 l124 0 21 30 c21 30 23 30
46 15 23 -15 25 -14 31 2 3 10 12 33 20 52 7 19 10 38 5 43 -5 5 -120 7 -257
6 l-249 -3 -8 -44 c-9 -53 -31 -88 -64 -103 -57 -26 -78 40 -29 92 29 30 55
90 55 125 0 33 26 33 34 0 4 -14 13 -25 21 -25 13 0 15 35 15 240 0 159 3 240
10 240 6 0 28 -9 50 -20 33 -17 59 -20 169 -20 l130 0 21 30 c12 17 25 30 30
30 12 0 120 -81 120 -90 0 -3 -15 -13 -32 -21 l-33 -14 -3 -179 c-1 -113 1
-183 8 -190 7 -7 21 0 43 22 33 32 33 32 52 12 10 -11 22 -20 27 -20 4 0 8 88
8 195 l0 195 51 -25 c40 -21 62 -25 107 -23 l57 3 3 78 3 77 57 -6 c31 -4 59
-8 61 -10z m-409 -378 c-7 -7 -10 23 -10 95 0 137 14 151 18 18 2 -61 -1 -106
-8 -113z m-190 -246 c-10 -18 -21 -20 -107 -20 -91 0 -163 14 -163 32 0 4 63
8 140 8 138 0 140 0 130 -20z m820 -25 c0 -13 -29 -15 -205 -15 -176 0 -205 2
-205 15 0 13 29 15 205 15 176 0 205 -2 205 -15z m203 -36 c31 -28 55 -55 51
-60 -3 -5 -184 -9 -430 -9 -417 0 -424 0 -424 20 0 20 7 20 338 20 l337 1 27
39 c15 22 31 40 36 40 4 0 34 -23 65 -51z m-77 -171 c51 -38 54 -43 38 -55
-10 -7 -26 -13 -36 -13 -16 0 -18 -11 -18 -119 0 -131 0 -130 -62 -141 -37 -7
-38 -6 -38 21 l0 29 -215 0 -215 0 0 -24 c0 -18 11 -31 43 -49 103 -61 146
-169 84 -212 -20 -14 -16 -15 51 -15 84 0 75 -11 120 148 19 66 30 92 42 91
25 0 129 -43 132 -54 2 -5 -9 -12 -23 -15 -18 -3 -42 -25 -73 -66 -25 -34 -52
-67 -61 -74 -30 -25 -14 -30 88 -30 l102 0 28 40 c16 22 32 40 36 40 13 0 116
-92 119 -106 5 -21 -893 -21 -901 0 -3 8 -3 17 0 20 4 3 76 6 162 6 139 0 153
2 135 15 -14 9 -23 30 -28 61 -8 62 -55 166 -72 160 -7 -3 -29 -8 -48 -12
l-36 -6 0 196 c0 112 4 196 9 196 5 0 30 -9 56 -20 41 -18 69 -20 244 -20
l197 0 29 30 c16 17 35 28 42 26 7 -3 38 -24 69 -48z m-698 -190 l2 -228 60 0
c65 0 72 -6 87 -83 l6 -28 -109 3 -109 3 -3 270 c-1 148 0 276 3 283 3 8 16
12 32 10 l28 -3 3 -227z m412 -162 c0 -8 -10 -45 -21 -82 l-22 -69 -13 44 c-7
24 -27 61 -44 82 l-31 39 66 0 c49 0 65 -3 65 -14z m-690 -92 l0 -57 -46 7
c-26 3 -60 6 -75 6 -28 0 -29 2 -29 50 l0 50 75 0 75 0 0 -56z"/>
<path d="M3590 4105 l0 -195 45 0 45 0 0 138 c0 76 3 141 6 145 4 3 24 -3 45
-13 23 -12 58 -20 89 -20 l50 0 0 70 0 70 -140 0 -140 0 0 -195z m230 120 c0
-19 -27 -19 -60 0 -25 14 -24 14 18 15 31 0 42 -4 42 -15z"/>
<path d="M4197 4224 c-4 -4 -7 -38 -7 -76 l0 -68 65 0 66 0 -3 73 -3 72 -55 3
c-31 2 -59 0 -63 -4z m60 -86 c-3 -8 -6 -5 -6 6 -1 11 2 17 5 13 3 -3 4 -12 1
-19z"/>
<path d="M4397 4223 c-4 -3 -7 -37 -7 -75 l0 -68 65 0 65 0 0 75 0 75 -58 0
c-32 0 -62 -3 -65 -7z m60 -85 c-3 -8 -6 -5 -6 6 -1 11 2 17 5 13 3 -3 4 -12
1 -19z"/>
<path d="M4600 4155 l0 -75 60 0 61 0 -3 73 -3 72 -57 3 -58 3 0 -76z"/>
<path d="M3760 4010 l0 -100 55 0 55 0 0 100 0 100 -55 0 -55 0 0 -100z"/>
<path d="M4192 3958 l3 -73 60 0 60 0 3 73 3 72 -66 0 -66 0 3 -72z m65 -10
c-3 -8 -6 -5 -6 6 -1 11 2 17 5 13 3 -3 4 -12 1 -19z"/>
<path d="M4392 3958 l3 -73 60 0 60 0 3 73 3 72 -66 0 -66 0 3 -72z m65 -10
c-3 -8 -6 -5 -6 6 -1 11 2 17 5 13 3 -3 4 -12 1 -19z"/>
<path d="M4602 3958 l3 -73 55 0 55 0 3 73 3 72 -61 0 -61 0 3 -72z"/>
<path d="M3604 3667 c-3 -8 -4 -47 -2 -88 l3 -74 130 0 130 0 0 85 0 85 -128
3 c-101 2 -128 0 -133 -11z m206 -82 c0 -24 -2 -25 -75 -25 -73 0 -75 1 -75
25 0 24 2 25 75 25 73 0 75 -1 75 -25z"/>
<path d="M3604 3447 c-3 -8 -4 -49 -2 -93 l3 -79 130 0 130 0 0 90 0 90 -128
3 c-100 2 -129 0 -133 -11z m206 -82 l0 -35 -75 0 -75 0 0 35 0 35 75 0 75 0
0 -35z"/>
<path d="M4247 3504 c-4 -4 -7 -45 -7 -91 l0 -83 215 0 216 0 -3 88 -3 87
-206 3 c-113 1 -208 -1 -212 -4z m363 -94 l0 -30 -155 0 -155 0 0 30 0 30 155
0 155 0 0 -30z"/>
<path d="M2779 4396 l-53 -66 -613 0 c-337 0 -613 -3 -613 -6 0 -3 9 -37 21
-75 l21 -69 319 0 319 0 0 -555 0 -555 -125 0 -125 0 0 344 0 344 29 30 c27
27 51 95 38 109 -6 6 -213 32 -259 33 l-28 0 0 -430 0 -430 -135 0 c-101 0
-135 -3 -135 -12 0 -7 8 -43 17 -80 l17 -68 788 0 c555 0 794 3 811 11 24 11
47 47 47 74 0 15 -73 83 -163 152 -66 51 -63 51 -124 -28 l-37 -49 -198 0
-198 0 2 258 3 257 261 5 c287 5 294 7 309 68 6 23 1 32 -32 60 -100 88 -186
152 -193 145 -3 -4 -28 -34 -55 -66 l-48 -58 -121 3 -121 3 0 215 0 215 300 5
c165 3 307 9 316 13 18 9 39 49 39 73 0 8 -16 29 -36 46 -32 29 -51 43 -156
122 l-36 27 -53 -65z m110 -43 c56 -41 101 -86 101 -100 0 -10 -64 -13 -320
-13 l-320 0 0 -275 0 -275 163 0 162 0 46 52 47 52 33 -26 c77 -59 112 -95
105 -106 -5 -9 -81 -12 -282 -12 l-274 0 0 -320 0 -320 233 0 232 0 44 55 44
55 26 -19 c55 -39 121 -103 121 -117 0 -12 -112 -14 -765 -14 -421 0 -765 2
-765 4 0 2 -3 11 -6 20 -5 13 11 16 123 18 l128 3 3 428 2 429 78 -7 c42 -4
79 -10 82 -12 3 -3 -7 -15 -22 -27 l-28 -22 0 -397 0 -397 178 2 177 3 3 612
2 613 -327 2 c-303 3 -328 4 -331 21 -3 16 30 17 586 17 l590 0 38 50 c21 28
42 50 48 50 5 0 25 -12 45 -27z"/>
<path d="M2160 1760 l0 -180 -204 0 -205 0 -95 44 -96 45 0 -455 0 -454 30 0
c53 0 125 20 154 43 21 17 29 34 33 70 l6 47 188 0 189 0 2 -323 3 -322 61 2
c66 1 137 30 148 58 3 9 6 145 6 301 l0 284 195 0 194 0 3 -67 3 -68 59 2 c38
1 75 10 105 25 l46 23 3 283 2 283 45 43 c25 23 45 47 45 53 0 6 -48 47 -107
93 l-108 82 -40 -46 -40 -46 -200 2 -200 3 -3 92 c-3 92 -3 93 28 120 25 23
31 37 33 73 l2 45 -100 11 c-55 7 -119 13 -142 13 l-43 1 0 -180z m207 111
c30 -1 20 -29 -13 -37 -24 -6 -24 -6 -24 -155 l0 -149 241 0 242 0 31 35 31
35 63 -51 c34 -28 62 -55 62 -59 0 -4 -13 -13 -30 -19 l-30 -10 0 -289 c0
-322 3 -309 -70 -322 l-40 -7 0 68 0 69 -250 0 -250 0 0 -305 0 -305 -22 -14
c-13 -8 -38 -17 -55 -21 l-33 -7 0 326 0 326 -250 0 -250 0 0 -59 c0 -51 -3
-62 -22 -75 -12 -9 -35 -16 -50 -16 l-28 0 0 375 c0 206 2 375 5 375 3 0 28
-11 55 -25 49 -25 53 -25 295 -25 l245 0 0 173 c0 96 2 176 5 178 2 3 30 2 62
-2 32 -4 68 -8 80 -8z"/>
<path d="M1727 1484 c-4 -4 -7 -108 -7 -231 l0 -223 250 0 250 0 -2 228 -3
227 -241 3 c-132 1 -243 -1 -247 -4z m433 -234 l0 -170 -190 0 -190 0 0 170 0
170 190 0 190 0 0 -170z"/>
<path d="M2337 1484 c-4 -4 -7 -108 -7 -231 l0 -223 250 0 250 0 -2 228 -3
227 -241 3 c-132 1 -243 -1 -247 -4z m433 -234 l0 -170 -192 2 -193 3 -3 168
-2 167 195 0 195 0 0 -170z"/>
<path d="M4020 1780 l0 -160 -358 0 c-197 0 -361 -3 -364 -6 -3 -3 -2 -20 2
-37 5 -18 14 -51 20 -74 l11 -43 204 0 c201 0 205 0 205 -21 0 -26 -90 -121
-191 -200 -63 -50 -76 -65 -69 -78 6 -9 45 -54 89 -100 l79 -85 27 18 c27 18
58 74 48 89 -5 8 48 97 57 97 3 -1 21 -35 40 -78 40 -87 98 -187 146 -250 l33
-44 -67 -59 c-129 -115 -313 -224 -528 -315 -60 -25 -110 -47 -113 -49 -7 -8
44 -115 54 -115 6 0 54 14 108 30 218 69 436 177 593 296 l84 63 63 -55 c78
-69 198 -150 307 -208 75 -40 308 -136 329 -136 4 0 15 18 24 40 15 39 34 53
88 64 23 5 29 14 39 56 7 28 11 53 9 54 -2 2 -40 14 -84 26 -196 54 -378 136
-533 240 -64 43 -90 65 -84 73 5 7 32 41 59 77 104 134 178 273 244 460 l37
105 138 5 c77 3 147 9 156 14 9 4 23 24 32 44 l15 37 -37 33 c-78 70 -181 152
-190 152 -5 0 -30 -27 -56 -60 l-47 -60 -200 0 -199 0 0 77 c0 71 2 79 26 98
26 21 52 102 37 115 -7 6 -228 30 -270 30 -10 0 -13 -39 -13 -160z m174 94
c51 -7 55 -21 12 -42 l-27 -13 3 -127 3 -127 237 -3 238 -2 22 27 c13 14 34
39 48 55 l25 28 70 -59 c38 -33 71 -64 73 -69 5 -16 -39 -22 -178 -22 l-135
-1 -39 -122 c-63 -192 -169 -385 -296 -532 l-51 -60 38 -33 c118 -104 351
-227 562 -298 l125 -41 -47 -21 c-28 -13 -52 -31 -59 -46 -14 -33 -21 -32
-113 4 -179 71 -357 179 -493 299 l-81 71 -80 -64 c-145 -117 -368 -234 -579
-305 -109 -36 -102 -35 -102 -16 0 8 6 15 13 15 6 0 62 22 122 48 187 83 400
221 510 332 l59 59 -30 38 c-90 112 -171 259 -219 396 -15 42 -31 77 -35 77
-4 0 -20 -24 -35 -52 -16 -29 -43 -77 -62 -106 -21 -33 -32 -61 -28 -72 12
-37 -14 -28 -59 20 -25 27 -46 53 -46 58 0 5 24 29 53 53 109 91 166 151 177
188 6 20 13 41 15 48 3 9 12 10 34 2 l31 -11 -31 -42 -30 -43 36 -82 c61 -139
173 -308 254 -385 l30 -29 21 24 c44 52 130 188 173 275 44 88 107 254 121
321 l8 33 -539 2 c-501 3 -538 4 -541 20 -3 17 21 18 350 20 l353 3 3 158 3
157 33 0 c18 0 54 -3 80 -6z m150 -516 c-44 -125 -89 -218 -161 -326 -64 -97
-56 -98 -145 21 -57 77 -158 265 -158 294 0 8 17 37 38 64 l37 48 212 1 212 0
-35 -102z"/>
</g>
</svg>
